<?xml version="1.0" encoding="UTF-8" standalone="no"?>
<!DOCTYPE svg PUBLIC "-//W3C//DTD SVG 1.1//EN"
 "http://www.w3.org/Graphics/SVG/1.1/DTD/svg11.dtd">
<!-- Generated by graphviz version 12.2.1 (20241206.2353)
 -->
<!-- Title: G Pages: 1 -->
<svg width="421pt" height="172pt"
 viewBox="0.00 0.00 420.50 172.00" xmlns="http://www.w3.org/2000/svg" xmlns:xlink="http://www.w3.org/1999/xlink">
<g id="graph0" class="graph" transform="scale(1 1) rotate(0) translate(36 136)">
<title>G</title>
<polygon fill="#f7f7f7" stroke="none" points="-36,36 -36,-136 384.5,-136 384.5,36 -36,36"/>
<!-- appmodelspost -->
<g id="node1" class="node">
<title>appmodelspost</title>
<polygon fill="none" stroke="black" points="100,-100 0,-100 0,0 100,0 100,-100"/>
<polygon fill="#d3d3d3" stroke="none" points="0,-60.75 0,-100 100,-100 100,-60.75 0,-60.75"/>
<polygon fill="none" stroke="black" points="0,-60.75 0,-100 100,-100 100,-60.75 0,-60.75"/>
<text text-anchor="start" x="37.25" y="-75.7" font-family="Helvetica Neue" font-size="14.00" fill="#333333">Post</text>
</g>
<!-- appmodelsuser -->
<g id="node2" class="node">
<title>appmodelsuser</title>
<polygon fill="none" stroke="black" points="348.5,-100 248.5,-100 248.5,0 348.5,0 348.5,-100"/>
<polygon fill="#d3d3d3" stroke="none" points="248.5,-60.75 248.5,-100 348.5,-100 348.5,-60.75 248.5,-60.75"/>
<polygon fill="none" stroke="black" points="248.5,-60.75 248.5,-100 348.5,-100 348.5,-60.75 248.5,-60.75"/>
<text text-anchor="start" x="284.62" y="-75.7" font-family="Helvetica Neue" font-size="14.00" fill="#333333">User</text>
</g>
<!-- appmodelspost&#45;&gt;appmodelsuser -->
<g id="edge1" class="edge">
<title>appmodelspost:user_id&#45;&gt;appmodelsuser:id</title>
<path fill="none" stroke="#f77f00" stroke-width="1.8" d="M110.97,-50C151.45,-50 204.44,-50 243.59,-50"/>
<polygon fill="#f77f00" stroke="#f77f00" stroke-width="1.8" points="110.89,-50 100.89,-45.5 105.29,-50 101.49,-50 101.49,-50 101.49,-50 105.29,-50 100.89,-54.5 110.89,-50"/>
<polygon fill="#f77f00" stroke="#f77f00" stroke-width="1.8" points="247.29,-45 247.3,-55 245.3,-55 245.29,-45 247.29,-45"/>
<polyline fill="none" stroke="#f77f00" stroke-width="1.8" points="248.29,-50 243.29,-50"/>
<text text-anchor="middle" x="174.25" y="-53.95" font-family="Helvetica Neue" font-size="14.00"> </text>
<text text-anchor="middle" x="146.53" y="-36.7" font-family="Helvetica Neue" font-size="14.00">BelongsTo</text>
<text text-anchor="middle" x="146.53" y="-19.45" font-family="Helvetica Neue" font-size="14.00">user</text>
</g>
</g>
</svg>
